<svg width="820" height="820" viewBox="0 0 820 820" fill="none" xmlns="http://www.w3.org/2000/svg">
// outer
<path d="M410.223 10.7227C374.805 10.7227 340.463 15.3315 307.766 23.9824L333.395 119.633C357.918 113.166 383.668 109.723 410.223 109.723C436.777 109.723 462.527 113.167 487.05 119.633L512.68 23.9824C479.982 15.3315 445.641 10.7227 410.223 10.7227Z" fill={colour('outer01')}/>
<path d="M488.016 119.891C539.403 133.625 585.364 160.639 621.998 197.031L692.002 127.027C643.261 78.5283 582.072 42.5285 513.646 24.2402L488.016 119.891Z" fill={colour('outer02')}/>
<path d="M622.707 197.735C659.227 234.255 686.391 280.132 700.295 331.461L795.945 305.832C777.488 237.464 741.338 176.36 692.711 127.732L622.707 197.735Z" fill={colour('outer03')}/>
<path d="M710.722 410.223C710.722 436.776 707.277 462.525 700.811 487.048L796.461 512.678C805.112 479.98 809.722 445.64 809.722 410.223C809.722 374.455 805.019 339.786 796.202 306.799L700.553 332.428C707.185 357.241 710.722 383.319 710.722 410.223Z" fill={colour('outer04')}/>
<path d="M700.553 488.016C686.819 539.403 659.804 585.364 623.412 621.998L693.416 692.002C741.915 643.261 777.914 582.072 796.202 513.646L700.553 488.016Z" fill={colour('outer05')}/>
<path d="M622.707 622.707C586.187 659.228 540.31 686.391 488.98 700.294L514.61 795.945C582.978 777.488 644.084 741.338 692.711 692.711L622.707 622.707Z" fill={colour('outer06')}/>
<path d="M488.014 700.553C463.201 707.184 437.124 710.723 410.221 710.723C383.317 710.723 357.24 707.185 332.427 700.553L306.797 796.203C339.784 805.02 374.453 809.723 410.221 809.723C445.988 809.723 480.656 805.02 513.644 796.203L488.014 700.553Z" fill={colour('outer07')} />
<path d="M127.73 692.71C176.358 741.337 237.462 777.486 305.83 795.944L331.46 700.294C280.131 686.39 234.254 659.227 197.734 622.707L127.73 692.71Z" fill={colour('outer08')}/>
<path d="M24.2402 513.645C42.5284 582.071 78.5275 643.26 127.026 692.001L197.03 621.998C160.638 585.364 133.624 539.403 119.89 488.016L24.2402 513.645Z" fill={colour('outer09')}/>
<path d="M10.7227 410.223C10.7227 445.64 15.3317 479.981 23.9824 512.679L119.633 487.049C113.167 462.526 109.723 436.777 109.723 410.223C109.723 383.319 113.259 357.24 119.891 332.427L24.2412 306.797C15.4243 339.785 10.7227 374.455 10.7227 410.223Z" fill={colour('outer10')}/>
<path d="M127.733 127.732C79.1065 176.359 42.9578 237.464 24.5 305.831L120.149 331.461C134.053 280.132 161.217 234.256 197.737 197.736L127.733 127.732Z" fill={colour('outer11')}/>
<path d="M306.798 24.2402C238.372 42.5286 177.182 78.5283 128.441 127.027L198.445 197.031C235.079 160.639 281.04 133.625 332.428 119.891L306.798 24.2402Z" fill={colour('outer12')}/>
// Mid
<path d="M410.222 110.723C383.757 110.723 358.093 114.154 333.652 120.599L359.282 216.25C375.548 211.99 392.62 209.723 410.222 209.723C427.823 209.723 444.895 211.99 461.16 216.25L486.79 120.599C462.35 114.154 436.686 110.723 410.222 110.723Z" fill={colour('mid01')}/>
<path d="M462.127 216.505C496.303 225.639 526.88 243.58 551.284 267.743L621.29 197.737C584.778 161.467 538.971 134.544 487.756 120.855L462.127 216.505Z" fill={colour('mid02')}/>
<path d="M551.996 268.445C576.287 292.736 594.373 323.231 603.676 357.349L699.328 331.719C685.471 280.562 658.398 234.839 622 198.441L551.996 268.445Z" fill={colour('mid03')}/>
<path d="M610.723 410.224C610.723 427.824 608.453 444.895 604.193 461.16L699.845 486.79C706.289 462.35 709.723 436.688 709.723 410.224C709.723 383.409 706.197 357.418 699.587 332.688L603.938 358.316C608.363 374.872 610.723 392.273 610.723 410.224Z" fill={colour('mid04')}/>
<path d="M603.937 462.127C594.802 496.303 576.862 526.88 552.699 551.284L622.705 621.29C658.975 584.778 685.898 538.971 699.586 487.756L603.937 462.127Z" fill={colour('mid05')}/>
<path d="M551.996 551.996C527.705 576.287 497.21 594.374 463.092 603.677L488.722 699.329C539.879 685.472 585.602 658.398 622 622L551.996 551.996Z" fill={colour('mid06')}/>
<path d="M462.128 603.938C445.572 608.362 428.173 610.723 410.223 610.723C392.272 610.723 374.872 608.362 358.316 603.938L332.688 699.587C357.418 706.197 383.409 709.723 410.223 709.723C437.036 709.723 463.027 706.196 487.757 699.587L462.128 603.938Z" fill={colour('mid07')}/>
<path d="M198.441 622C234.839 658.398 280.562 685.471 331.719 699.328L357.349 603.677C323.23 594.374 292.735 576.287 268.444 551.996L198.441 622Z" fill={colour('mid08')}/>
<path d="M120.855 487.757C134.544 538.972 161.468 584.778 197.737 621.29L267.743 551.285C243.58 526.881 225.64 496.303 216.506 462.127L120.855 487.757Z" fill={colour('mid09')}/>
<path d="M110.723 410.223C110.723 436.687 114.155 462.35 120.599 486.79L216.251 461.16C211.991 444.895 209.723 427.824 209.723 410.223C209.723 392.271 212.082 374.871 216.507 358.314L120.857 332.686C114.247 357.416 110.723 383.408 110.723 410.223Z" fill={colour('mid10')}/>
<path d="M198.443 198.443C162.046 234.841 134.973 280.563 121.115 331.72L216.767 357.35C226.069 323.232 244.156 292.737 268.446 268.446L198.443 198.443Z" fill={colour('mid11')}/>
<path d="M332.687 120.855C281.471 134.544 235.664 161.467 199.152 197.736L269.158 267.742C293.562 243.579 324.139 225.639 358.315 216.505L332.687 120.855Z" fill={colour('mid12')}/>
// inner
<path d="M410.222 210.723C392.71 210.723 375.724 212.979 359.541 217.217L385.171 312.869C393.179 310.815 401.573 309.723 410.222 309.723C418.87 309.723 427.264 310.815 435.271 312.869L460.901 217.217C444.718 212.979 427.734 210.723 410.222 210.723Z" fill={colour('inner01')}/>
<path d="M436.238 313.123C453.203 317.657 468.4 326.519 480.573 338.454L550.577 268.451C526.295 244.41 495.872 226.561 461.868 217.473L436.238 313.123Z" fill={colour('inner02')}/>
<path d="M481.285 339.156C493.347 351.218 502.355 366.331 507.056 383.238L602.71 357.607C593.453 323.662 575.457 293.321 551.288 269.152L481.285 339.156Z" fill={colour('inner03')}/>
<path d="M510.723 410.223C510.723 418.871 509.629 427.263 507.575 435.271L603.228 460.9C607.465 444.718 609.723 427.734 609.723 410.223C609.723 392.361 607.375 375.048 602.972 358.574L507.32 384.204C509.538 392.503 510.723 401.225 510.723 410.223Z" fill={colour('inner04')}/>
<path d="M507.319 436.238C502.785 453.204 493.923 468.401 481.988 480.574L551.992 550.577C576.033 526.295 593.882 495.872 602.971 461.868L507.319 436.238Z" fill={colour('inner05')}/>
<path d="M481.286 481.285C469.225 493.347 454.111 502.355 437.203 507.056L462.833 602.71C496.779 593.453 527.12 575.457 551.289 551.288L481.286 481.285Z" fill={colour('inner06')}/>
<path d="M436.238 507.32C427.94 509.538 419.219 510.723 410.222 510.723C401.224 510.723 392.503 509.538 384.204 507.32L358.574 602.971C375.047 607.374 392.36 609.723 410.222 609.723C428.083 609.723 445.395 607.373 461.868 602.971L436.238 507.32Z" fill={colour('inner07')}/>
<path d="M269.152 551.289C293.321 575.458 323.662 593.454 357.608 602.711L383.238 507.057C366.331 502.355 351.218 493.347 339.156 481.285L269.152 551.289Z" fill={colour('inner08')}/>
<path d="M217.473 461.867C226.561 495.872 244.41 526.295 268.451 550.577L338.454 480.573C326.519 468.4 317.657 453.203 313.123 436.238L217.473 461.867Z" fill={colour('inner09')}/>
<path d="M210.723 410.223C210.723 427.734 212.979 444.719 217.217 460.901L312.869 435.271C310.815 427.264 309.723 418.871 309.723 410.223C309.723 401.224 310.906 392.502 313.124 384.203L217.474 358.574C213.071 375.048 210.723 392.361 210.723 410.223Z" fill={colour('inner10')}/>
<path d="M269.154 269.152C244.986 293.321 226.991 323.662 217.734 357.607L313.388 383.237C318.089 366.331 327.097 351.217 339.158 339.156L269.154 269.152Z" fill={colour('inner11')}/>
<path d="M358.574 217.473C324.57 226.561 294.147 244.409 269.865 268.45L339.868 338.454C352.042 326.519 367.239 317.657 384.204 313.123L358.574 217.473Z" fill={colour('inner12')}/>
</svg>
