<svg width="600" height="149" viewBox="0 0 600 149" fill="none" xmlns="http://www.w3.org/2000/svg">
<path d="M0 144.675V91.6375H10.2846V104.569L7.61458 104.973C8.142 103.356 9.06497 101.706 10.3835 100.022C11.7021 98.3388 13.3502 96.8235 15.328 95.4765C17.3058 94.0622 19.4815 92.9172 21.8548 92.0417C24.2942 91.166 26.8982 90.7283 29.6672 90.7283C32.8977 90.7283 35.7983 91.2672 38.3695 92.3447C40.9407 93.4223 43.0173 95.0723 44.5997 97.2948C46.2478 99.5175 47.3357 102.279 47.863 105.579L45.4897 104.973L46.1818 103.255C46.973 101.841 48.0608 100.427 49.4453 99.0123C50.8957 97.5307 52.5768 96.1837 54.4887 94.9713C56.4665 93.6917 58.5762 92.6815 60.8177 91.9407C63.0592 91.1323 65.3667 90.7283 67.74 90.7283C72.355 90.7283 76.0798 91.6375 78.9147 93.456C81.7495 95.2743 83.8263 97.8673 85.1448 101.235C86.4633 104.602 87.1227 108.61 87.1227 113.257V144.675H76.838V114.267C76.838 111.236 76.4095 108.711 75.5525 106.69C74.7613 104.602 73.5087 103.02 71.7945 101.942C70.0805 100.865 67.839 100.326 65.07 100.326C62.7625 100.326 60.587 100.73 58.5432 101.538C56.5655 102.279 54.8183 103.356 53.302 104.771C51.7857 106.118 50.599 107.701 49.742 109.519C48.9508 111.337 48.5553 113.291 48.5553 115.378V144.675H38.2707V114.065C38.2707 111.236 37.8092 108.812 36.8862 106.791C35.9632 104.703 34.5787 103.121 32.7328 102.043C30.8868 100.898 28.5465 100.326 25.7115 100.326C23.47 100.326 21.4263 100.73 19.5803 101.538C17.7343 102.346 16.0862 103.424 14.6358 104.771C13.2513 106.118 12.1635 107.633 11.3724 109.317C10.6472 110.933 10.2846 112.617 10.2846 114.368V144.675H0Z" fill="white"/>
<path d="M129.584 145.685C123.849 145.685 118.739 144.507 114.256 142.15C109.839 139.725 106.345 136.458 103.774 132.35C101.203 128.175 99.9172 123.427 99.9172 118.106C99.9172 112.785 101.203 108.071 103.774 103.963C106.345 99.7868 109.839 96.5203 114.256 94.1632C118.739 91.7385 123.849 90.5263 129.584 90.5263C135.254 90.5263 140.298 91.7385 144.715 94.1632C149.198 96.5203 152.725 99.7868 155.296 103.963C157.867 108.071 159.153 112.785 159.153 118.106C159.153 123.427 157.867 128.175 155.296 132.35C152.725 136.458 149.198 139.725 144.715 142.15C140.298 144.507 135.254 145.685 129.584 145.685ZM129.584 136.19C133.21 136.19 136.474 135.415 139.375 133.867C142.341 132.25 144.649 130.095 146.297 127.4C148.011 124.639 148.835 121.541 148.769 118.106C148.835 114.604 148.011 111.506 146.297 108.812C144.649 106.05 142.341 103.895 139.375 102.346C136.474 100.797 133.21 100.022 129.584 100.022C125.958 100.022 122.662 100.831 119.695 102.447C116.729 103.996 114.388 106.118 112.674 108.812C111.026 111.506 110.235 114.604 110.301 118.106C110.235 121.541 111.026 124.639 112.674 127.4C114.388 130.095 116.729 132.25 119.695 133.867C122.662 135.415 125.958 136.19 129.584 136.19Z" fill="white"/>
<path d="M274.352 145.685C268.418 145.685 263.145 144.54 258.53 142.252C253.915 139.893 250.288 136.695 247.652 132.653C245.08 128.613 243.795 123.966 243.795 118.712C243.795 114.402 244.553 110.529 246.07 107.094C247.585 103.66 249.662 100.696 252.3 98.2042C255.003 95.7122 258.167 93.7927 261.793 92.4457C265.418 91.0987 269.308 90.4252 273.462 90.4252C277.22 90.4252 280.713 91.065 283.945 92.3447C287.242 93.6243 290.108 95.4092 292.548 97.699C294.987 99.9888 296.867 102.717 298.185 105.882C299.57 108.98 300.228 112.415 300.163 116.187L300.063 121.036H252.102L249.827 112.752H291.262L289.778 114.065V111.641C289.515 109.418 288.592 107.431 287.01 105.68C285.428 103.929 283.45 102.548 281.077 101.538C278.703 100.528 276.165 100.023 273.462 100.023C269.507 100.023 266.045 100.662 263.078 101.942C260.178 103.222 257.903 105.209 256.255 107.903C254.673 110.529 253.882 113.897 253.882 118.005C253.882 121.709 254.805 124.908 256.65 127.602C258.497 130.297 261.068 132.385 264.363 133.867C267.66 135.348 271.452 136.088 275.737 136.088C279.428 136.088 282.627 135.55 285.328 134.472C288.032 133.395 290.603 131.913 293.042 130.027L297.888 137.603C296.173 139.085 294.032 140.467 291.46 141.745C288.888 142.958 286.12 143.935 283.153 144.675C280.253 145.348 277.318 145.685 274.352 145.685Z" fill="white"/>
<path d="M357.018 144.675V91.6375H367.205V104.165L364.633 104.973C365.622 102.548 367.172 100.258 369.282 98.1032C371.39 95.8805 373.895 94.0622 376.797 92.6478C379.763 91.2335 382.895 90.5263 386.192 90.5263C390.74 90.5263 394.532 91.4355 397.563 93.254C400.662 95.005 402.97 97.5307 404.487 100.831C406.002 104.131 406.76 108.104 406.76 112.752V144.675H396.575V113.863C396.575 110.832 396.015 108.307 394.893 106.286C393.838 104.198 392.29 102.649 390.245 101.639C388.268 100.561 385.928 100.056 383.225 100.124C380.917 100.124 378.775 100.528 376.797 101.336C374.885 102.144 373.203 103.222 371.753 104.569C370.303 105.916 369.182 107.431 368.392 109.115C367.6 110.731 367.205 112.415 367.205 114.166V144.675H362.16C360.973 144.675 359.952 144.675 359.095 144.675C358.238 144.675 357.547 144.675 357.018 144.675Z" fill="white"/>
<path d="M510.922 144.675V76.888H521.108V144.675H510.922ZM497.77 101.74V91.6375H536.337V101.74H497.77Z" fill="white"/>
<path d="M574.185 145.685C568.252 145.685 562.977 144.54 558.363 142.252C553.748 139.893 550.122 136.695 547.485 132.653C544.913 128.613 543.628 123.966 543.628 118.712C543.628 114.402 544.387 110.529 545.902 107.094C547.418 103.66 549.495 100.696 552.132 98.2042C554.835 95.7122 558 93.7927 561.627 92.4457C565.252 91.0987 569.142 90.4252 573.295 90.4252C577.053 90.4252 580.547 91.065 583.777 92.3447C587.073 93.6243 589.942 95.4092 592.382 97.699C594.82 99.9888 596.7 102.717 598.018 105.882C599.402 108.98 600.062 112.415 599.995 116.187L599.897 121.036H551.935L549.66 112.752H591.095L589.612 114.065V111.641C589.348 109.418 588.425 107.431 586.843 105.68C585.26 103.929 583.283 102.548 580.91 101.538C578.537 100.528 575.998 100.023 573.295 100.023C569.34 100.023 565.878 100.662 562.912 101.942C560.01 103.222 557.737 105.209 556.088 107.903C554.505 110.529 553.715 113.897 553.715 118.005C553.715 121.709 554.638 124.908 556.483 127.602C558.33 130.297 560.9 132.385 564.197 133.867C567.493 135.348 571.285 136.088 575.57 136.088C579.262 136.088 582.458 135.55 585.162 134.472C587.865 133.395 590.437 131.913 592.875 130.027L597.722 137.603C596.007 139.085 593.865 140.467 591.293 141.745C588.722 142.958 585.953 143.935 582.987 144.675C580.085 145.348 577.152 145.685 574.185 145.685Z" fill="white"/>
<path d="M456.808 103.397C441.908 103.397 429.295 111.488 429.295 121.065C429.295 130.647 441.908 138.737 456.808 138.737C471.73 138.737 484.345 130.647 484.345 121.065C484.345 111.488 471.73 103.397 456.808 103.397ZM456.808 148.043C436.283 148.043 420.175 136.193 420.175 121.065C420.175 105.94 436.283 94.0913 456.808 94.0913C477.357 94.0913 493.442 105.94 493.442 121.065C493.442 136.193 477.357 148.043 456.808 148.043Z" fill="white"/>
<path d="M208.44 134.537C202.375 137.753 195.935 139.195 190.332 138.612C187.497 138.313 182.377 137.173 180.223 132.905C176.597 125.813 183.432 114.577 195.122 108.369C200.308 105.615 205.847 104.183 210.747 104.183C213.735 104.183 216.505 104.717 218.768 105.812L218.833 105.842C219.01 105.92 222.877 107.851 224.24 113.582C224.635 120.668 218.043 129.427 208.44 134.537ZM231.427 0H225.8C225.163 0 224.635 0.516305 224.635 1.1898L224.592 98.5342C223.867 98.038 223.163 97.6225 222.592 97.3598C213.977 93.256 201.847 94.3023 190.903 100.112C174.288 108.942 166.048 125.232 172.135 137.2C175.212 143.232 181.343 147.022 189.408 147.87C190.507 147.987 191.65 148.043 192.815 148.043C199.253 148.043 206.177 146.227 212.637 142.792C225.493 135.965 231.69 124.354 231.36 113.585L231.427 113.517L232.59 1.1898C232.59 0.538755 232.063 0 231.427 0Z" fill="white"/>
<path d="M246.667 80C315.416 50.4668 361.251 50.4668 430 80C384.167 40 291.354 40 246.667 80Z" fill="white"/>
</svg>
